<?xml version="1.0" encoding="UTF-8" standalone="no"?>
        <svg xmlns="http://www.w3.org/2000/svg" xmlns:xlink="http://www.w3.org/1999/xlink" version="1.1" width="3230.7692307692305" 
        height="1972.1406137140775" viewBox="0 0 3230.7692307692305 1972.1406137140775">
			<rect fill="#ffffff" width="3230.7692307692305" height="1972.1406137140775"/>
			<g transform="scale(11.538461538461537) translate(10, 10)">
				<defs id="SvgjsDefs2236"></defs><g id="SvgjsG2237" featureKey="monogramFeature-0" transform="matrix(1.35,0,0,1.35,105,-0.2762154579162619)" fill="#000000"><path d="M14.88 60 c-9.66 0 -14.88 -1.2 -14.88 -12.54 l0 -20.22 c0 -5.4 3.84 -9.24 9.3 -9.24 c6.42 0 17.4 -0.78 20.58 8.04 c0.96 2.7 0.84 5.94 0.18 8.64 c5.46 1.98 7.62 5.82 7.62 13.2 c0 5.16 -2.52 8.7 -7.5 10.56 c-4.62 1.74 -10.32 1.56 -15.3 1.56 z M9.3 22.14 c-2.4 0 -5.16 1.32 -5.16 5.1 l0 20.04 c0 8.04 2.1 8.58 10.74 8.58 c9.9 0 18.66 -0.06 18.66 -7.98 c0 -5.64 -1.2 -7.86 -4.86 -9.3 c-1.74 4.14 -5.22 8.4 -9.84 8.4 c-5.34 0 -8.46 -5.64 -5.7 -9.96 c1.74 -2.58 5.94 -4.98 12.96 -3.54 c0.48 -2.46 0.42 -4.44 -0.12 -6.06 c-2.04 -5.7 -10.08 -5.28 -16.68 -5.28 z M16.62 39.3 c-1.14 1.8 0.66 4.2 3.18 3.42 c1.74 -0.48 3.72 -2.88 4.86 -5.28 c-2.88 -0.48 -6.6 -0.24 -8.04 1.86 z"></path></g><g id="SvgjsG2238" featureKey="nameFeature-0" transform="matrix(0.7135137887531264,0,0,0.7135137887531264,-2.606322886663625,96.87548380689984)" fill="#000000"><path d="M18.809 25.098 c3.1836 0.87891 5.3125 2.9688 5.3125 6.9922 c0 4.7656 -2.8906 7.9102 -8.8477 7.9102 l-11.621 0 l0 -28.223 l9.1406 0 c6.0938 0 9.2969 2.9297 9.2969 7.7344 c0 2.4805 -1.0742 4.5117 -3.2813 5.5859 z M12.852 16.641 l-3.5547 0 l0 6.6406 l3.8086 0 c2.5 0 3.5938 -1.4844 3.5938 -3.3984 c0 -1.875 -1.2305 -3.2422 -3.8477 -3.2422 z M14.18 34.9805 c3.1641 0 4.2578 -1.6992 4.2578 -3.5352 c0 -1.875 -1.0742 -3.6523 -4.375 -3.6523 l-4.7656 0 l0 7.1875 l4.8828 0 z M47.87140625 40 l-7.3438 -12.422 l-1.6992 0 l0 12.422 l-5.8594 0 l0 -28.223 l10.234 0 c6.3867 0 9.082 3.7695 9.082 8.4375 c0 3.7891 -2.1484 6.25 -5.9766 7.0703 l8.4961 12.715 l-6.9336 0 z M38.82810625 16.641 l0 6.7383 l3.457 0 c3.125 0 4.3945 -1.3281 4.3945 -3.3594 c0 -2.0117 -1.2695 -3.3789 -4.3945 -3.3789 l-3.457 0 z M62.73433125 40 l0 -28.223 l5.8594 0 l0 28.223 l-5.8594 0 z M98.398375 40 l-2.0508 -5.8203 l-11.855 0 l-2.0508 5.8203 l-5.9961 0 l10.391 -28.223 l7.168 0 l10.391 28.223 l-5.9961 0 z M86.211375 29.277 l8.418 0 l-4.1992 -11.973 z M131.54328125 11.777000000000001 l5.8398 0 l0 28.223 l-6.7773 0 l-12.5 -20.176 l0 20.176 l-5.8398 0 l0 -28.223 l6.6992 0 l12.578 20.059 l0 -20.059 z M166.93360625 40 l-7.3828 -28.223 l6.0938 0 l5.5078 21.367 l6.3086 -21.367 l4.9414 0 l6.2695 21.367 l5.5664 -21.367 l6.0742 0 l-7.3828 28.223 l-7.5391 0 l-5.4688 -17.441 l-5.4492 17.441 l-7.5391 0 z M228.339825 34.8242 l8.8477 0 l0 5.1758 l-14.707 0 l0 -28.223 l5.8594 0 l0 23.047 z M266.464625 11.777000000000001 l-9.2773 14.707 l0 13.516 l-5.8789 0 l0 -13.379 l-9.3359 -14.844 l6.4844 0 l5.7617 9.6094 l5.7813 -9.6094 l6.4648 0 z M293.34015625 11.777000000000001 l5.8398 0 l0 28.223 l-6.7773 0 l-12.5 -20.176 l0 20.176 l-5.8398 0 l0 -28.223 l6.6992 0 l12.578 20.059 l0 -20.059 z M322.61684375 40.39063 c-8.3008 0 -14.434 -5.6445 -14.434 -14.512 s6.1328 -14.492 14.434 -14.492 c6.2891 0 11.328 3.2227 13.34 8.5742 l-5.4688 1.9922 c-1.25 -3.2813 -4.2383 -5.1758 -7.8711 -5.1758 c-4.8633 0 -8.5938 3.3984 -8.5938 9.1016 s3.7305 9.1211 8.5938 9.1211 c3.6328 0 6.6211 -1.9141 7.8711 -5.1953 l5.4688 1.9922 c-2.0117 5.3516 -7.0508 8.5938 -13.34 8.5938 z M362.1871875 11.777000000000001 l5.8594 0 l0 28.223 l-5.8594 0 l0 -11.602 l-11.934 0 l0 11.602 l-5.8594 0 l0 -28.223 l5.8594 0 l0 11.523 l11.934 0 l0 -11.523 z"></path></g><g id="SvgjsG2239" featureKey="sloganFeature-0" transform="matrix(0.6839644625169308,0,0,0.6839644625169308,49.799461934771415,137.10597843368814)" fill="#000000"><path d="M10.801 5.888999999999999 l3.1152 0 l-5.2148 14.111 l-3.2227 0 l-5.1855 -14.111 l3.1055 0 l3.7012 10.693 z M21.0303015625 20 l0 -14.111 l2.9297 0 l0 14.111 l-2.9297 0 z M32.597684375 20 l0 -14.111 l5.1074 0 c4.502 0 6.7285 2.832 6.7285 7.0508 c0 4.2285 -2.2266 7.0605 -6.7285 7.0605 l-5.1074 0 z M35.527384375 17.4121 l2.0313 0 c2.5977 0 3.7891 -1.6211 3.7891 -4.4727 s-1.1914 -4.4727 -3.7891 -4.4727 l-2.0313 0 l0 8.9453 z M60.3566796875 8.467 l-5.2344 0 l0 3.2031 l4.6387 0 l0 2.5488 l-4.6387 0 l0 3.1934 l5.2344 0 l0 2.5879 l-8.1836 0 l0 -14.111 l8.1836 0 l0 2.5781 z M74.61916875 20.19531 c-4.1504 0 -7.2168 -2.832 -7.2168 -7.2559 c0 -4.4336 3.0664 -7.2461 7.2168 -7.2461 c4.1406 0 7.207 2.8125 7.207 7.2461 c0 4.4238 -3.0664 7.2559 -7.207 7.2559 z M74.61916875 17.5098 c2.4316 0 4.2969 -1.709 4.2969 -4.5703 c0 -2.8516 -1.8652 -4.5508 -4.2969 -4.5508 s-4.2969 1.6992 -4.2969 4.5508 c0 2.8613 1.8652 4.5703 4.2969 4.5703 z M107.890859375 8.467 l-5.2344 0 l0 3.2031 l4.6387 0 l0 2.5488 l-4.6387 0 l0 3.1934 l5.2344 0 l0 2.5879 l-8.1836 0 l0 -14.111 l8.1836 0 l0 2.5781 z M125.5421484375 5.888999999999999 l2.9199 0 l0 14.111 l-3.3887 0 l-6.25 -10.088 l0 10.088 l-2.9199 0 l0 -14.111 l3.3496 0 l6.2891 10.029 l0 -10.029 z M143.212903125 20.19531 c-4.0723 0 -7.0703 -2.8125 -7.0703 -7.2168 c0 -4.4629 3.0664 -7.2852 7.2168 -7.2852 c2.7246 0 4.9805 1.2012 6.2109 3.3203 l-2.5684 1.3672 c-0.74219 -1.4453 -2.0703 -2.1387 -3.6426 -2.1387 c-2.4414 0 -4.2773 1.6797 -4.2773 4.668 c0 2.8809 1.7188 4.7363 4.3848 4.7363 c1.8066 0 3.4668 -0.89844 3.8672 -2.959 l-3.8574 0 l0 -2.3535 l6.6309 0 l0 7.666 l-2.3047 0 l0 -1.9531 c-0.9082 1.3379 -2.4316 2.1484 -4.5898 2.1484 z M158.1396765625 20 l0 -14.111 l2.9297 0 l0 14.111 l-2.9297 0 z M179.345859375 5.888999999999999 l2.9199 0 l0 14.111 l-3.3887 0 l-6.25 -10.088 l0 10.088 l-2.9199 0 l0 -14.111 l3.3496 0 l6.2891 10.029 l0 -10.029 z M199.0969140625 8.467 l-5.2344 0 l0 3.2031 l4.6387 0 l0 2.5488 l-4.6387 0 l0 3.1934 l5.2344 0 l0 2.5879 l-8.1836 0 l0 -14.111 l8.1836 0 l0 2.5781 z M215.293203125 8.467 l-5.2344 0 l0 3.2031 l4.6387 0 l0 2.5488 l-4.6387 0 l0 3.1934 l5.2344 0 l0 2.5879 l-8.1836 0 l0 -14.111 l8.1836 0 l0 2.5781 z M230.7567921875 20 l-3.6719 -6.2109 l-0.84961 0 l0 6.2109 l-2.9297 0 l0 -14.111 l5.1172 0 c3.1934 0 4.541 1.8848 4.541 4.2188 c0 1.8945 -1.0742 3.125 -2.9883 3.5352 l4.248 6.3574 l-3.4668 0 z M226.2353921875 8.32 l0 3.3691 l1.7285 0 c1.5625 0 2.1973 -0.66406 2.1973 -1.6797 c0 -1.0059 -0.63477 -1.6895 -2.1973 -1.6895 l-1.7285 0 z"></path></g>
			</g>
		</svg>
	